<mxfile host="app.diagrams.net" modified="2024-06-03T20:47:16.999Z" agent="Mozilla/5.0 (Macintosh; Intel Mac OS X 10_15_7) AppleWebKit/537.36 (KHTML, like Gecko) Chrome/124.0.0.0 Safari/537.36" etag="JYE2SgVO2EaF-5Epz_3_" version="24.4.13" type="github">
  <diagram name="Page-1" id="3e8102d1-ef87-2e61-34e1-82d9a586fe2e">
    <mxGraphModel dx="1166" dy="520" grid="1" gridSize="10" guides="1" tooltips="1" connect="1" arrows="1" fold="1" page="1" pageScale="1" pageWidth="1100" pageHeight="850" background="none" math="0" shadow="0">
      <root>
        <mxCell id="0" />
        <mxCell id="1" parent="0" />
        <mxCell id="70666756c84bb93c-1" value="Visols" style="ellipse;whiteSpace=wrap;html=1;rounded=0;shadow=0;comic=0;strokeWidth=1;fontFamily=Verdana;fontSize=14;strokeColor=none;fillColor=#0069D1;" parent="1" vertex="1">
          <mxGeometry x="270" y="110" width="510" height="530" as="geometry" />
        </mxCell>
        <mxCell id="nAH8D6b-xxCVDZUUIt8D-1" value="" style="endArrow=none;html=1;rounded=0;entryX=0.996;entryY=0.472;entryDx=0;entryDy=0;strokeColor=#FFFFFF;entryPerimeter=0;exitX=0.004;exitY=0.47;exitDx=0;exitDy=0;exitPerimeter=0;" edge="1" parent="1" source="70666756c84bb93c-1" target="70666756c84bb93c-1">
          <mxGeometry width="50" height="50" relative="1" as="geometry">
            <mxPoint x="280" y="370" as="sourcePoint" />
            <mxPoint x="340" y="300" as="targetPoint" />
          </mxGeometry>
        </mxCell>
        <mxCell id="nAH8D6b-xxCVDZUUIt8D-9" value="" style="endArrow=none;html=1;rounded=0;entryX=1;entryY=0.5;entryDx=0;entryDy=0;strokeColor=#FFFFFF;" edge="1" parent="1" source="70666756c84bb93c-1">
          <mxGeometry width="50" height="50" relative="1" as="geometry">
            <mxPoint x="290" y="370" as="sourcePoint" />
            <mxPoint x="790" y="370" as="targetPoint" />
          </mxGeometry>
        </mxCell>
        <mxCell id="nAH8D6b-xxCVDZUUIt8D-10" value="" style="endArrow=none;html=1;rounded=0;entryX=0.5;entryY=1;entryDx=0;entryDy=0;strokeColor=#FFFFFF;exitX=0.5;exitY=0;exitDx=0;exitDy=0;" edge="1" parent="1" source="70666756c84bb93c-1" target="70666756c84bb93c-1">
          <mxGeometry width="50" height="50" relative="1" as="geometry">
            <mxPoint x="290" y="370" as="sourcePoint" />
            <mxPoint x="790" y="370" as="targetPoint" />
          </mxGeometry>
        </mxCell>
        <mxCell id="nAH8D6b-xxCVDZUUIt8D-12" value="&lt;font color=&quot;#ffffff&quot; style=&quot;font-size: 36px;&quot;&gt;Value&lt;/font&gt;" style="text;strokeColor=none;align=center;fillColor=none;html=1;verticalAlign=middle;whiteSpace=wrap;rounded=0;" vertex="1" parent="1">
          <mxGeometry x="610" y="216" width="60" as="geometry" />
        </mxCell>
        <mxCell id="nAH8D6b-xxCVDZUUIt8D-14" value="&lt;font color=&quot;#ffffff&quot; style=&quot;font-size: 36px;&quot;&gt;Governance&lt;/font&gt;" style="text;strokeColor=none;align=center;fillColor=none;html=1;verticalAlign=middle;whiteSpace=wrap;rounded=0;rotation=0;" vertex="1" parent="1">
          <mxGeometry x="600" y="490" width="60" height="50" as="geometry" />
        </mxCell>
        <mxCell id="nAH8D6b-xxCVDZUUIt8D-15" value="&lt;font color=&quot;#ffffff&quot; style=&quot;font-size: 36px;&quot;&gt;Adoption&lt;/font&gt;" style="text;strokeColor=none;align=center;fillColor=none;html=1;verticalAlign=middle;whiteSpace=wrap;rounded=0;" vertex="1" parent="1">
          <mxGeometry x="390" y="490" width="60" height="50" as="geometry" />
        </mxCell>
        <mxCell id="nAH8D6b-xxCVDZUUIt8D-16" value="&lt;font color=&quot;#ffffff&quot; style=&quot;font-size: 36px;&quot;&gt;Vision&lt;/font&gt;" style="text;strokeColor=none;align=center;fillColor=none;html=1;verticalAlign=middle;whiteSpace=wrap;rounded=0;" vertex="1" parent="1">
          <mxGeometry x="370" y="186" width="90" height="60" as="geometry" />
        </mxCell>
        <mxCell id="70666756c84bb93c-2" value="&lt;h2&gt;4 Pillars of Building Value&lt;/h2&gt;" style="ellipse;whiteSpace=wrap;html=1;rounded=0;shadow=0;comic=0;strokeWidth=1;fontFamily=Verdana;fontSize=22;strokeColor=#E6E6E6;fillColor=#ffffff;fontColor=#0069D1;fontStyle=1" parent="1" vertex="1">
          <mxGeometry x="400" y="230" width="260" height="260" as="geometry" />
        </mxCell>
      </root>
    </mxGraphModel>
  </diagram>
</mxfile>
